<?xml version="1.0" encoding="UTF-8"?>
<svg version="1.1" xmlns="http://www.w3.org/2000/svg" width="990" height="990">
<path d="M0 0 C326.7 0 653.4 0 990 0 C990 326.7 990 653.4 990 990 C663.3 990 336.6 990 0 990 C0 663.3 0 336.6 0 0 Z " fill="#292929" transform="translate(0,0)"/>
<path d="M0 0 C51.15 0 102.3 0 155 0 C155 1.98 155 3.96 155 6 C105.83 6 56.66 6 6 6 C6 189.48 6 372.96 6 562 C189.48 562 372.96 562 562 562 C562 378.52 562 195.04 562 6 C463.99 6 365.98 6 265 6 C265 4.02 265 2.04 265 0 C364.99 0 464.98 0 568 0 C568 187.44 568 374.88 568 568 C380.56 568 193.12 568 0 568 C0 380.56 0 193.12 0 0 Z " fill="#848481" transform="translate(211,212)"/>
<path d="M0 0 C9.57 0 19.14 0 29 0 C29 101.97 29 203.94 29 309 C67.94 309 106.88 309 147 309 C147 317.58 147 326.16 147 335 C98.49 335 49.98 335 0 335 C0 224.45 0 113.9 0 0 Z " fill="#83827F" transform="translate(434,91)"/>
<path d="M0 0 C9.57 0 19.14 0 29 0 C29 74.58 29 149.16 29 226 C36.59 226 44.18 226 52 226 C52 234.25 52 242.5 52 251 C34.84 251 17.68 251 0 251 C0 168.17 0 85.34 0 0 Z " fill="#C4C7C1" transform="translate(379,122)"/>
<path d="M0 0 C28.05 0 56.1 0 85 0 C85 6.27 85 12.54 85 19 C63.55 19 42.1 19 20 19 C20 36.82 20 54.64 20 73 C39.8 73 59.6 73 80 73 C80 78.94 80 84.88 80 91 C60.2 91 40.4 91 20 91 C20 109.81 20 128.62 20 148 C42.77 148 65.54 148 89 148 C89 154.27 89 160.54 89 167 C59.63 167 30.26 167 0 167 C0 111.89 0 56.78 0 0 Z " fill="#83827F" transform="translate(382,487)"/>
<path d="M0 0 C0 7.59 0 15.18 0 23 C-3.11793947 21.75282421 -6.00812683 20.51753207 -9 19.0625 C-23.24959954 12.83558826 -41.42882804 11.35195432 -56.44921875 15.8984375 C-63.01581207 18.73424044 -68.60307557 23.05100994 -71.40625 29.7734375 C-73.42972271 37.36146015 -72.46513854 43.94955227 -68.578125 50.73046875 C-61.74362897 60.55928606 -49.96169364 64.98203949 -39.59082031 70.21582031 C-28.72153589 75.72263282 -18.64105128 81.52883493 -9 89 C-8.24976563 89.56589844 -7.49953125 90.13179687 -6.7265625 90.71484375 C-2.58055459 94.012407 -0.3700634 97.25987321 2 102 C2.53625 102.969375 3.0725 103.93875 3.625 104.9375 C8.53427704 115.87179886 8.31995872 127.59535787 4.453125 138.85546875 C-1.28030134 151.26248006 -11.58503188 158.15833218 -23.93359375 162.96484375 C-46.43760053 170.56173776 -72.90363858 166.37616063 -94 157 C-94 149.41 -94 141.82 -94 134 C-92.68 134.66 -91.36 135.32 -90 136 C-88.75447505 136.55187894 -87.50464771 137.09418751 -86.25 137.625 C-85.1775 138.07875 -84.105 138.5325 -83 139 C-83 139.66 -83 140.32 -83 141 C-79.34623348 142.05138996 -75.67748319 143.03498668 -72 144 C-70.95070313 144.28617188 -69.90140625 144.57234375 -68.8203125 144.8671875 C-61.83472048 146.59303965 -55.30473892 147.28246802 -48.125 147.3125 C-47.34060547 147.31789795 -46.55621094 147.3232959 -45.74804688 147.32885742 C-37.01503863 147.2223799 -27.87857403 145.43604851 -21.234375 139.39453125 C-16.53927061 134.23219559 -14.51304508 129.31888448 -14.7578125 122.20703125 C-15.53242896 115.14802639 -17.36582998 109.52217143 -22.73046875 104.7109375 C-27.56758402 101.06436867 -32.77075473 98.04290561 -38 95 C-39.57974609 94.04867187 -39.57974609 94.04867187 -41.19140625 93.078125 C-46.25938817 90.04898638 -51.2829021 87.33028749 -56.71484375 85.0234375 C-63.89926076 81.80580116 -70.8479179 77.92166568 -77 73 C-77 72.34 -77 71.68 -77 71 C-78.11181641 70.67322266 -78.11181641 70.67322266 -79.24609375 70.33984375 C-85.88266161 67.11098875 -89.74770825 58.21678771 -92.5 51.625 C-95.59358697 42.09675215 -95.23072816 31.12391908 -91 22 C-83.4690965 8.65254502 -72.81982896 1.44368154 -58.3125 -2.75 C-39.62022858 -7.75010993 -18.10980101 -6.03660034 0 0 Z " fill="#83827F" transform="translate(713,490)"/>
<path d="M0 0 C2.31 0.66 4.62 1.32 7 2 C7 9.59 7 17.18 7 25 C4.40949051 23.9637962 1.82061679 22.91981725 -0.7265625 21.78125 C-14.91985775 15.50712488 -33.92900848 12.45919107 -48.953125 18 C-51.92472304 19.45177309 -54.69100789 21.12551573 -57.40625 23.01171875 C-59 24 -59 24 -61 24 C-64.86990489 33.12191866 -66.78553547 41.00880384 -63.3125 50.5 C-59.80669621 57.63146412 -53.60613783 61.10610603 -47 65 C-46.24589844 65.45761719 -45.49179687 65.91523437 -44.71484375 66.38671875 C-40.70360864 68.71308054 -36.53730365 70.7310713 -32.38305664 72.78613281 C-28.91293299 74.50626014 -25.45232994 76.24443764 -22 78 C-21.37335449 78.31839844 -20.74670898 78.63679687 -20.10107422 78.96484375 C-5.84928258 86.32159188 6.76699243 96.31227696 12.39135742 111.81665039 C13.41844352 115.50105913 13.44589442 119.07155505 13.375 122.875 C13.36484863 123.66511475 13.35469727 124.45522949 13.34423828 125.26928711 C13.04728238 136.46728699 9.71134138 145.04539779 1.890625 153.19921875 C-2.69383585 157.47541413 -7.19072055 160.66160773 -13 163 C-13.87914062 163.35964844 -14.75828125 163.71929688 -15.6640625 164.08984375 C-36.39920484 172.11542915 -64.7132293 169.80638376 -85 161 C-87 159 -87 159 -87.22705078 156.66162109 C-87.21657715 155.70852051 -87.20610352 154.75541992 -87.1953125 153.7734375 C-87.18886719 152.7421875 -87.18242187 151.7109375 -87.17578125 150.6484375 C-87.15902344 149.56820312 -87.14226562 148.48796875 -87.125 147.375 C-87.11597656 146.28703125 -87.10695313 145.1990625 -87.09765625 144.078125 C-87.07403409 141.38519848 -87.04109556 138.69270745 -87 136 C-83.82195734 137.18365875 -81.55384206 138.31745853 -78.75 140.3125 C-74.56347023 143.01013008 -70.17936711 144.36585164 -65.4375 145.75 C-64.71723633 145.96052002 -63.99697266 146.17104004 -63.25488281 146.38793945 C-49.53295456 150.2234853 -31.59622758 151.95689852 -18.76953125 144.74609375 C-13.83075206 141.44457833 -10.47594506 137.82998297 -9 132 C-8.11583268 124.11617474 -7.8966333 116.45515133 -13 110 C-20.47933268 101.84996629 -31.07538289 96.85023397 -40.86914062 92.05566406 C-47.76324833 88.6674225 -54.40576155 84.94166885 -61 81 C-61.84304688 80.49855469 -62.68609375 79.99710938 -63.5546875 79.48046875 C-69.41922402 75.79737748 -74.52111498 71.29419033 -79 66 C-79 65.34 -79 64.68 -79 64 C-79.66 64 -80.32 64 -81 64 C-81.81917642 62.27398621 -82.63006016 60.5440353 -83.4375 58.8125 C-83.88996094 57.84957031 -84.34242188 56.88664063 -84.80859375 55.89453125 C-88.61531539 46.64606982 -88.55168676 34.80208723 -84.9375 25.5 C-82.47668178 20.35337446 -79.35876003 15.7329431 -75 12 C-74.34 12 -73.68 12 -73 12 C-73 11.34 -73 10.68 -73 10 C-53.65368592 -5.1926567 -22.98666739 -7.29416811 0 0 Z " fill="#83827F" transform="translate(581,488)"/>
<path d="M0 0 C6.6 0 13.2 0 20 0 C20 48.51 20 97.02 20 147 C41.78 147 63.56 147 86 147 C86 153.27 86 159.54 86 166 C57.62 166 29.24 166 0 166 C0 111.22 0 56.44 0 0 Z " fill="#848380" transform="translate(271,488)"/>
<path d="M0 0 C48.84 0 97.68 0 148 0 C148 8.25 148 16.5 148 25 C99.16 25 50.32 25 0 25 C0 16.75 0 8.5 0 0 Z " fill="#C6C8C2" transform="translate(466,348)"/>
<path d="M0 0 C51.15 0 102.3 0 155 0 C153.68 0.33 152.36 0.66 151 1 C150.67 1.99 150.34 2.98 150 4 C149 5 149 5 146.75298977 5.12304783 C145.25000631 5.12166514 145.25000631 5.12166514 143.71665955 5.12025452 C142.57095993 5.12162918 141.42526031 5.12300385 140.24484253 5.12442017 C138.97673737 5.12082489 137.7086322 5.11722961 136.40209961 5.11352539 C135.06206769 5.11324352 133.72203561 5.11340125 132.38200378 5.1139679 C128.73340562 5.11425587 125.08484005 5.1083592 121.43624949 5.10139394 C117.62722484 5.09516034 113.8181995 5.0945566 110.00917053 5.09336853 C102.79142246 5.09025523 95.57368946 5.08204186 88.35594803 5.07201904 C80.14084743 5.06085786 71.92574612 5.05534744 63.71063983 5.05032361 C46.80708449 5.03985925 29.90354384 5.02225983 13 5 C13 4.34 13 3.68 13 3 C7.06 2.01 7.06 2.01 1 1 C1 188.11 1 375.22 1 568 C0.67 568 0.34 568 0 568 C0 380.56 0 193.12 0 0 Z " fill="#767572" transform="translate(211,212)"/>
<path d="M0 0 C2.97 0 5.94 0 9 0 C9 3.3 9 6.6 9 10 C11.64 10 14.28 10 17 10 C17 6.7 17 3.4 17 0 C19.97 0 22.94 0 26 0 C26 13.86 26 27.72 26 42 C23.03 42 20.06 42 17 42 C17 34.08 17 26.16 17 18 C14.36 18 11.72 18 9 18 C9 25.92 9 33.84 9 42 C6.03 42 3.06 42 0 42 C0 28.14 0 14.28 0 0 Z " fill="#C7C8C5" transform="translate(429,675)"/>
<path d="M0 0 C0.7321875 0.02449219 1.464375 0.04898438 2.21875 0.07421875 C3.31703125 0.06841797 3.31703125 0.06841797 4.4375 0.0625 C8.02795839 1.16300009 9.44921324 2.77748699 11.71875 5.76171875 C12.74904261 8.96827204 13.15342469 12.17220133 13.53125 15.51171875 C13.64960205 16.43170654 13.7679541 17.35169434 13.88989258 18.29956055 C14.89993916 26.79962621 15.02110674 35.2173411 14.71875 43.76171875 C11.74875 43.76171875 8.77875 43.76171875 5.71875 43.76171875 C5.66976563 42.67375 5.62078125 41.58578125 5.5703125 40.46484375 C5.18302342 32.62604123 4.63214209 24.99802872 3.12109375 17.27734375 C2.71336917 14.7280755 2.6492282 12.33866004 2.71875 9.76171875 C2.05875 9.76171875 1.39875 9.76171875 0.71875 9.76171875 C0.65816406 10.95925781 0.59757812 12.15679688 0.53515625 13.390625 C0.01603717 23.52128085 -0.57034144 33.64261603 -1.28125 43.76171875 C-4.25125 43.76171875 -7.22125 43.76171875 -10.28125 43.76171875 C-10.58806949 34.25031461 -10.4570498 24.9453079 -9.09375 15.51171875 C-8.99280029 14.72692139 -8.89185059 13.94212402 -8.7878418 13.13354492 C-7.87396049 7.42286515 -6.00790675 2.00606476 0 0 Z " fill="#C1C3BF" transform="translate(281.28125,673.23828125)"/>
<path d="M0 0 C6.27 0 12.54 0 19 0 C19 2.64 19 5.28 19 8 C15.7 8 12.4 8 9 8 C9 9.65 9 11.3 9 13 C11.64 13 14.28 13 17 13 C17 15.64 17 18.28 17 21 C14.36 21 11.72 21 9 21 C9 25.29 9 29.58 9 34 C12.3 34 15.6 34 19 34 C19 36.64 19 39.28 19 42 C12.73 42 6.46 42 0 42 C0 28.14 0 14.28 0 0 Z " fill="#C7C8C5" transform="translate(588,675)"/>
<path d="M0 0 C1.26328125 0.02707031 2.5265625 0.05414062 3.828125 0.08203125 C4.79234375 0.11683594 5.7565625 0.15164063 6.75 0.1875 C6.75 3.1575 6.75 6.1275 6.75 9.1875 C3.12 9.1875 -0.51 9.1875 -4.25 9.1875 C-3.92 16.7775 -3.59 24.3675 -3.25 32.1875 C0.05 32.5175 3.35 32.8475 6.75 33.1875 C6.75 36.1575 6.75 39.1275 6.75 42.1875 C-5.98941819 42.96324265 -5.98941819 42.96324265 -10.5 40.1875 C-14.37984898 33.53633032 -14.59065119 26.57323637 -14.5625 19.0625 C-14.57861328 18.19496094 -14.59472656 17.32742188 -14.61132812 16.43359375 C-14.61598159 10.31894552 -13.83589751 5.96559259 -9.515625 1.32421875 C-6.27780016 -0.30027612 -3.5959577 -0.09988771 0 0 Z " fill="#C3C4C1" transform="translate(657.25,674.8125)"/>
<path d="M0 0 C1.18851562 0.00902344 2.37703125 0.01804687 3.6015625 0.02734375 C4.51679688 0.03894531 5.43203125 0.05054688 6.375 0.0625 C6.375 2.7025 6.375 5.3425 6.375 8.0625 C3.075 8.3925 -0.225 8.7225 -3.625 9.0625 C-3.625 16.6525 -3.625 24.2425 -3.625 32.0625 C-0.325 32.3925 2.975 32.7225 6.375 33.0625 C6.375 36.0325 6.375 39.0025 6.375 42.0625 C-6.49678902 42.92189244 -6.49678902 42.92189244 -10.3125 40.0625 C-16.50277254 32.03187617 -15.44422476 20.06687172 -14.3125 10.390625 C-13.4342716 6.21904011 -11.97981745 3.68345113 -8.625 1.0625 C-5.74084117 -0.37957941 -3.20778472 -0.03144887 0 0 Z " fill="#BBBCB9" transform="translate(393.625,674.9375)"/>
<path d="M0 0 C7.92 0 15.84 0 24 0 C24 2.64 24 5.28 24 8 C21.69 8 19.38 8 17 8 C17 19.22 17 30.44 17 42 C13.7 42 10.4 42 7 42 C7 30.78 7 19.56 7 8 C4.69 8 2.38 8 0 8 C0 5.36 0 2.72 0 0 Z " fill="#C4C5C1" transform="translate(531,675)"/>
<path d="M0 0 C7.92 0 15.84 0 24 0 C24 2.64 24 5.28 24 8 C21.69 8 19.38 8 17 8 C17 19.22 17 30.44 17 42 C13.7 42 10.4 42 7 42 C7 30.78 7 19.56 7 8 C4.69 8 2.38 8 0 8 C0 5.36 0 2.72 0 0 Z " fill="#C3C4C1" transform="translate(695,675)"/>
<path d="M0 0 C2.4178712 -0.10826289 4.83087556 -0.18739789 7.25 -0.25 C8.27287109 -0.30027344 8.27287109 -0.30027344 9.31640625 -0.3515625 C12.6578521 -0.41644494 14.64890845 -0.23723918 17.4453125 1.65234375 C20.36793718 6.06565388 19.92385315 10.93542376 19 16 C17.59279651 18.19603024 16.19612989 19.71757662 14.21484375 21.40234375 C12.75371456 22.97177663 12.75371456 22.97177663 13.09375 25.3046875 C14.19368109 28.57603427 15.75538436 31.24865537 17.5625 34.1875 C21 39.79678068 21 39.79678068 21 42 C17.39979967 42.86316278 14.56994043 43.07705002 11 42 C6.63145504 37.33137927 2.69096584 31.13360719 2.125 24.625 C3.13491775 20.44105505 4.65507911 18.62811296 7.59765625 15.609375 C9.40715333 13.53273768 9.83496575 11.72306508 10 9 C6.7 9 3.4 9 0 9 C0 6.03 0 3.06 0 0 Z " fill="#BBBCB9" transform="translate(331,675)"/>
<path d="M0 0 C2.97 0 5.94 0 9 0 C9 13.86 9 27.72 9 42 C6.03 42 3.06 42 0 42 C0 28.14 0 14.28 0 0 Z " fill="#C8C9C6" transform="translate(489,675)"/>
<path d="M0 0 C1.26328125 0.02707031 2.5265625 0.05414062 3.828125 0.08203125 C4.79234375 0.11683594 5.7565625 0.15164063 6.75 0.1875 C6.75 3.1575 6.75 6.1275 6.75 9.1875 C3.12 9.1875 -0.51 9.1875 -4.25 9.1875 C-4.25 16.4475 -4.25 23.7075 -4.25 31.1875 C-4.58 31.1875 -4.91 31.1875 -5.25 31.1875 C-5.25 25.2475 -5.25 19.3075 -5.25 13.1875 C-6.24 13.1875 -7.23 13.1875 -8.25 13.1875 C-8.91 12.5275 -9.57 11.8675 -10.25 11.1875 C-12.8154594 13.7529594 -12.79046087 15.66436668 -13.25 19.1875 C-13.58 19.1875 -13.91 19.1875 -14.25 19.1875 C-14.57248404 13.14391015 -14.79612824 8.38004493 -11.25 3.1875 C-7.74127433 -0.30467508 -4.81426134 -0.13372948 0 0 Z " fill="#999997" transform="translate(657.25,674.8125)"/>
<path d="M0 0 C0.66 0 1.32 0 2 0 C4.4139065 11.48042438 5.39624358 22.27412521 5 34 C4.34 33.67 3.68 33.34 3 33 C2.34 33.66 1.68 34.32 1 35 C0.67 34.34 0.34 33.68 0 33 C-0.99 33.495 -0.99 33.495 -2 34 C-2.30900266 22.51540109 -1.37383463 11.39546762 0 0 Z " fill="#262822" transform="translate(282,683)"/>
<path d="M0 0 C2.31 0.33 4.62 0.66 7 1 C6.69320313 1.52078125 6.38640625 2.0415625 6.0703125 2.578125 C4.72751849 5.61656401 4.3350559 8.46388645 3.875 11.75 C3.62363281 13.50570312 3.62363281 13.50570312 3.3671875 15.296875 C3.24601562 16.18890625 3.12484375 17.0809375 3 18 C0.36 18 -2.28 18 -5 18 C-5 16.02 -5 14.04 -5 12 C-4.34 12 -3.68 12 -3 12 C-2.86722656 11.30132813 -2.73445313 10.60265625 -2.59765625 9.8828125 C-2.42105469 8.97273437 -2.24445313 8.06265625 -2.0625 7.125 C-1.88847656 6.22007812 -1.71445312 5.31515625 -1.53515625 4.3828125 C-1 2 -1 2 0 0 Z " fill="#C6C9C5" transform="translate(278,678)"/>
<path d="M0 0 C0.59167969 0.06960938 1.18335938 0.13921875 1.79296875 0.2109375 C2.12296875 0.8709375 2.45296875 1.5309375 2.79296875 2.2109375 C2.14367285 3.55281568 1.47565013 4.88573247 0.79296875 6.2109375 C0.79296875 7.2009375 0.79296875 8.1909375 0.79296875 9.2109375 C0.13296875 9.2109375 -0.52703125 9.2109375 -1.20703125 9.2109375 C-1.20703125 10.8609375 -1.20703125 12.5109375 -1.20703125 14.2109375 C-1.53703125 14.2109375 -1.86703125 14.2109375 -2.20703125 14.2109375 C-2.58766346 11.8848518 -2.9197307 9.55038486 -3.20703125 7.2109375 C-2.87703125 6.8809375 -2.54703125 6.5509375 -2.20703125 6.2109375 C-4.18703125 5.5509375 -6.16703125 4.8909375 -8.20703125 4.2109375 C-8.33980469 4.90960937 -8.47257812 5.60828125 -8.609375 6.328125 C-8.78597656 7.23820313 -8.96257812 8.14828125 -9.14453125 9.0859375 C-9.31855469 9.99085938 -9.49257813 10.89578125 -9.671875 11.828125 C-10.20703125 14.2109375 -10.20703125 14.2109375 -11.20703125 16.2109375 C-11.86703125 16.2109375 -12.52703125 16.2109375 -13.20703125 16.2109375 C-12.99755746 6.57514336 -12.99755746 6.57514336 -10.20703125 2.5859375 C-6.52961016 -0.3253542 -4.53939885 -0.31101917 0 0 Z " fill="#BBBDBA" transform="translate(286.20703125,673.7890625)"/>
<path d="M0 0 C1.17046875 0.03609375 2.3409375 0.0721875 3.546875 0.109375 C4.43890625 0.15578125 5.3309375 0.2021875 6.25 0.25 C6.25 2.89 6.25 5.53 6.25 8.25 C3.28 8.25 0.31 8.25 -2.75 8.25 C-3.41 6.93 -4.07 5.61 -4.75 4.25 C-6.73 4.25 -8.71 4.25 -10.75 4.25 C-7.43152371 0.07726249 -5.22729025 -0.20909161 0 0 Z " fill="#C7C7C5" transform="translate(656.75,674.75)"/>
<path d="M0 0 C4.62 0 9.24 0 14 0 C14.33 1.65 14.66 3.3 15 5 C11.99580359 6.0013988 9.12290635 6.51421457 6 7 C6 7.33 6 7.66 6 8 C4.02 8 2.04 8 0 8 C0 5.36 0 2.72 0 0 Z " fill="#C5C5C3" transform="translate(332,675)"/>
<path d="M0 0 C2.97 0 5.94 0 9 0 C9 2.64 9 5.28 9 8 C4.71 8 0.42 8 -4 8 C-4 7.34 -4 6.68 -4 6 C-3.01 6 -2.02 6 -1 6 C-1.99 5.34 -2.98 4.68 -4 4 C-3.34 4 -2.68 4 -2 4 C-1.34 2.68 -0.68 1.36 0 0 Z " fill="#C5C7C4" transform="translate(391,675)"/>
<path d="M0 0 C0.33 0 0.66 0 1 0 C1 5.94 1 11.88 1 18 C-1.97 18 -4.94 18 -8 18 C-7.67 15.03 -7.34 12.06 -7 9 C-6.01 9 -5.02 9 -4 9 C-1.32654667 6.22372155 -0.52442422 3.7758544 0 0 Z " fill="#C2C4BF" transform="translate(279,699)"/>
<path d="M0 0 C4.29 0 8.58 0 13 0 C13 2.31 13 4.62 13 7 C7.64614377 7.35107254 7.64614377 7.35107254 5 7 C3.125 5.0625 3.125 5.0625 2 3 C1.34 2.67 0.68 2.34 0 2 C0 1.34 0 0.68 0 0 Z " fill="#C7C8C6" transform="translate(387,709)"/>
<path d="M0 0 C3.63 0.33 7.26 0.66 11 1 C11 3.97 11 6.94 11 10 C6.38 10 1.76 10 -3 10 C-1.68 9.34 -0.36 8.68 1 8 C1 7.01 1 6.02 1 5 C1 4.34 1 3.68 1 3 C3.4375 3.375 3.4375 3.375 6 4 C6.33 4.66 6.66 5.32 7 6 C7.66 6 8.32 6 9 6 C9.33 4.68 9.66 3.36 10 2 C6.7 2 3.4 2 0 2 C0 1.34 0 0.68 0 0 Z " fill="#AFAFAD" transform="translate(653,707)"/>
<path d="M0 0 C0.375 2.0625 0.375 2.0625 0 5 C-1.42502665 6.87863874 -2.99242016 8.55905533 -4.59765625 10.28515625 C-6.35224252 12.43073668 -6.83337757 14.25072988 -7 17 C-7.33 17 -7.66 17 -8 17 C-7.88660796 14.35319096 -7.75987127 11.70822482 -7.625 9.0625 C-7.5940625 8.30775391 -7.563125 7.55300781 -7.53125 6.77539062 C-7.4273685 4.84492605 -7.22104386 2.92057919 -7 1 C-4.53721199 -0.231394 -2.7204945 -0.07159196 0 0 Z " fill="#373936" transform="translate(341,684)"/>
<path d="M0 0 C2.53354319 1.83463472 4.94129488 3.63248912 7 6 C7 6.66 7 7.32 7 8 C3.7 8 0.4 8 -3 8 C-3.33 6.68 -3.66 5.36 -4 4 C-2.0625 1.75 -2.0625 1.75 0 0 Z " fill="#C3C4C1" transform="translate(345,709)"/>
<path d="M0 0 C0.33 0 0.66 0 1 0 C1 5.61 1 11.22 1 17 C0.34 16.67 -0.32 16.34 -1 16 C-1.66 16.66 -2.32 17.32 -3 18 C-3.33 17.34 -3.66 16.68 -4 16 C-4.66 16.33 -5.32 16.66 -6 17 C-6 12.05 -6 7.1 -6 2 C-5.67 2 -5.34 2 -5 2 C-4.67 5.3 -4.34 8.6 -4 12 C-3.01 11.67 -2.02 11.34 -1 11 C-0.67 7.37 -0.34 3.74 0 0 Z " fill="#4A4B46" transform="translate(286,700)"/>
<path d="M0 0 C2.7654203 0.1929363 4.32795051 0.78924845 6.6875 2.1875 C6.0275 2.1875 5.3675 2.1875 4.6875 2.1875 C4.6875 2.8475 4.6875 3.5075 4.6875 4.1875 C4.0275 4.1875 3.3675 4.1875 2.6875 4.1875 C2.3575 6.1675 2.0275 8.1475 1.6875 10.1875 C-0.8125 9.0625 -0.8125 9.0625 -3.3125 7.1875 C-3.6875 4.0625 -3.6875 4.0625 -3.3125 1.1875 C-2.3125 0.1875 -2.3125 0.1875 0 0 Z " fill="#C5C7C4" transform="translate(337.3125,694.8125)"/>
<path d="M0 0 C0.66 0 1.32 0 2 0 C4.29612756 11.52164009 4.29612756 11.52164009 4 17 C3.34 17.33 2.68 17.66 2 18 C2.020625 17.195625 2.04125 16.39125 2.0625 15.5625 C2.29633621 13.06645115 2.29633621 13.06645115 1 12 C0.34 12.99 -0.32 13.98 -1 15 C-1.09038099 9.84828377 -0.84681133 5.08086796 0 0 Z " fill="#424640" transform="translate(282,683)"/>
<path d="M0 0 C0.66 0 1.32 0 2 0 C2 2.31 2 4.62 2 7 C-1.63 7 -5.26 7 -9 7 C-8.34 6.67 -7.68 6.34 -7 6 C-7 5.34 -7 4.68 -7 4 C-5 2 -5 2 -2.375 1.875 C-1.59125 1.91625 -0.8075 1.9575 0 2 C0 1.34 0 0.68 0 0 Z " fill="#CCCDCA" transform="translate(605,676)"/>
<path d="M0 0 C1.36125 0.12375 1.36125 0.12375 2.75 0.25 C2.75 0.91 2.75 1.57 2.75 2.25 C3.41 2.25 4.07 2.25 4.75 2.25 C4.09 3.57 3.43 4.89 2.75 6.25 C2.21375 5.92 1.6775 5.59 1.125 5.25 C-1.7891061 4.02300796 -4.11867708 4.10766714 -7.25 4.25 C-4.83923194 1.28290085 -3.90322061 0.30024774 0 0 Z " fill="#BBBBB9" transform="translate(653.25,674.75)"/>
<path d="M0 0 C0.66 0 1.32 0 2 0 C1.65415128 2.5592805 1.31949609 4.52075586 -0.125 6.6875 C-2.86508705 8.60556094 -5.78028005 9.21025737 -9 10 C-8.2575 9.278125 -7.515 8.55625 -6.75 7.8125 C-3.98732731 5.09288953 -3.98732731 5.09288953 -1.8125 2.1875 C-1.214375 1.465625 -0.61625 0.74375 0 0 Z " fill="#797A76" transform="translate(696,624)"/>
<path d="M0 0 C0.99 0.33 1.98 0.66 3 1 C2.67 1.763125 2.34 2.52625 2 3.3125 C0.82563314 5.99069135 0.82563314 5.99069135 1 9 C0.34 9 -0.32 9 -1 9 C-1 10.65 -1 12.3 -1 14 C-1.33 14 -1.66 14 -2 14 C-2.38063221 11.6739143 -2.71269945 9.33944736 -3 7 C-2.67 6.67 -2.34 6.34 -2 6 C-2.66 5.34 -3.32 4.68 -4 4 C-2.68 4 -1.36 4 0 4 C0 2.68 0 1.36 0 0 Z " fill="#B3B5B0" transform="translate(286,674)"/>
<path d="M0 0 C-0.33 0.99 -0.66 1.98 -1 3 C-4.40562852 3.77842938 -7.50765756 4.09978121 -11 4 C-7.39987093 0.15158617 -5.25169925 -1.6298377 0 0 Z " fill="#3A3937" transform="translate(661,506)"/>
<path d="M0 0 C2.50357861 0.8345262 4.66785852 1.79371992 7 3 C3.6853333 5.02907167 1.5684021 5.12742133 -2.25 4.625 C-3.14203125 4.51414062 -4.0340625 4.40328125 -4.953125 4.2890625 C-5.96632813 4.14597656 -5.96632813 4.14597656 -7 4 C-7 3.67 -7 3.34 -7 3 C-5.5459375 2.5359375 -5.5459375 2.5359375 -4.0625 2.0625 C-1.15934208 1.30476658 -1.15934208 1.30476658 0 0 Z " fill="#7B7A78" transform="translate(519,650)"/>
<path d="M0 0 C2.9375 0.8125 2.9375 0.8125 6 2 C6.33 2.99 6.66 3.98 7 5 C4.36 5 1.72 5 -1 5 C-0.67 3.35 -0.34 1.7 0 0 Z " fill="#C5C5C3" transform="translate(540,712)"/>
<path d="M0 0 C3.3 0 6.6 0 10 0 C10 1.65 10 3.3 10 5 C8.68 5 7.36 5 6 5 C6 4.01 6 3.02 6 2 C4.35 1.67 2.7 1.34 1 1 C0.67 1.66 0.34 2.32 0 3 C0 2.01 0 1.02 0 0 Z " fill="#CDCDCA" transform="translate(653,709)"/>
<path d="M0 0 C1.2065625 0.0309375 1.2065625 0.0309375 2.4375 0.0625 C2.1075 1.0525 1.7775 2.0425 1.4375 3.0625 C1.82682856 5.20505793 1.82682856 5.20505793 2.4375 7.0625 C1.4475 7.5575 1.4475 7.5575 0.4375 8.0625 C0.4375 7.4025 0.4375 6.7425 0.4375 6.0625 C-0.8825 6.3925 -2.2025 6.7225 -3.5625 7.0625 C-2.9025 5.7425 -2.2425 4.4225 -1.5625 3.0625 C-2.2225 2.4025 -2.8825 1.7425 -3.5625 1.0625 C-2.5625 0.0625 -2.5625 0.0625 0 0 Z " fill="#CED0CB" transform="translate(442.5625,684.9375)"/>
<path d="M0 0 C0.33 0.66 0.66 1.32 1 2 C3.52733235 2.65555119 3.52733235 2.65555119 6 3 C5.67 3.99 5.34 4.98 5 6 C4.34 5.34 3.68 4.68 3 4 C0.4345406 6.5654594 0.45953913 8.47686668 0 12 C-0.33 12 -0.66 12 -1 12 C-1.02698189 10.37509046 -1.04638757 8.75005367 -1.0625 7.125 C-1.07410156 6.22007812 -1.08570313 5.31515625 -1.09765625 4.3828125 C-1 2 -1 2 0 0 Z " fill="#AFAFAF" transform="translate(644,682)"/>
<path d="M0 0 C1.50559539 1.96382007 2.89131683 3.78263366 4 6 C6.02463255 6.65213292 6.02463255 6.65213292 8 7 C7.67 7.99 7.34 8.98 7 10 C4.35831079 9.64301497 2.39109264 9.247692 0.125 7.8125 C-1 6 -1 6 -0.6875 2.8125 C-0.460625 1.884375 -0.23375 0.95625 0 0 Z " fill="#30322F" transform="translate(338,710)"/>
<path d="M0 0 C0.33 0 0.66 0 1 0 C1 4.62 1 9.24 1 14 C0.01 13.67 -0.98 13.34 -2 13 C-2 10.36 -2 7.72 -2 5 C-1.67 5 -1.34 5 -1 5 C-0.67 3.35 -0.34 1.7 0 0 Z " fill="#CACBC6" transform="translate(279,699)"/>
<path d="M0 0 C0.66 0 1.32 0 2 0 C2 2.64 2 5.28 2 8 C-0.97 8 -3.94 8 -7 8 C-5.68 6.68 -4.36 5.36 -3 4 C-1.68 4.99 -0.36 5.98 1 7 C0.67 4.69 0.34 2.38 0 0 Z " fill="#CFD0CD" transform="translate(717,675)"/>
<path d="M0 0 C2.475 0.99 2.475 0.99 5 2 C3.02 4.97 3.02 4.97 1 8 C0.67 7.01 0.34 6.02 0 5 C-0.66 5 -1.32 5 -2 5 C-2 4.01 -2 3.02 -2 2 C-1.34 2 -0.68 2 0 2 C0 1.34 0 0.68 0 0 Z " fill="#333532" transform="translate(274,672)"/>
<path d="M0 0 C3.37503669 1.1858237 5.64722731 2.27573689 8 5 C6.35 5.66 4.7 6.32 3 7 C1.25372522 4.38058783 0.61277612 2.96175123 0 0 Z " fill="#7B7C7C" transform="translate(494,624)"/>
<path d="M0 0 C0.66 0 1.32 0 2 0 C2 0.66 2 1.32 2 2 C2.66 2 3.32 2 4 2 C3.67 3.32 3.34 4.64 3 6 C0.64828869 5.40138258 -1.6859378 4.73075648 -4 4 C-4.33 3.34 -4.66 2.68 -5 2 C-2.525 2.495 -2.525 2.495 0 3 C0 2.01 0 1.02 0 0 Z " fill="#7D7C79" transform="translate(659,571)"/>
<path d="M0 0 C1.32 0.33 2.64 0.66 4 1 C4 1.66 4 2.32 4 3 C6.97 3 9.94 3 13 3 C13 3.33 13 3.66 13 4 C8.71 4 4.42 4 0 4 C0 2.68 0 1.36 0 0 Z " fill="#C3C4BF" transform="translate(592,685)"/>
<path d="M0 0 C2.97 0.99 5.94 1.98 9 3 C7 5 7 5 4.5625 5.1875 C2 5 2 5 -1 4 C-0.67 2.68 -0.34 1.36 0 0 Z " fill="#B8B9B6" transform="translate(337,692)"/>
<path d="M0 0 C1.32 0 2.64 0 4 0 C4 1.65 4 3.3 4 5 C2.02 5.99 2.02 5.99 0 7 C0.33 6.01 0.66 5.02 1 4 C0.34 3.34 -0.32 2.68 -1 2 C-0.67 1.34 -0.34 0.68 0 0 Z " fill="#2A2C27" transform="translate(337,684)"/>
<path d="M0 0 C4.87362847 0.45336079 7.39042389 1.7089159 11 5 C10.01 5.495 10.01 5.495 9 6 C6.8359375 5.00390625 6.8359375 5.00390625 4.375 3.5625 C3.55773437 3.08941406 2.74046875 2.61632812 1.8984375 2.12890625 C1.27195312 1.75636719 0.64546875 1.38382813 0 1 C0 0.67 0 0.34 0 0 Z " fill="#767573" transform="translate(522,569)"/>
<path d="M0 0 C2.16874252 0.50603992 3.99967627 0.99983813 6 2 C6 2.99 6 3.98 6 5 C5.34 5 4.68 5 4 5 C3.67 5.66 3.34 6.32 3 7 C0 2.25 0 2.25 0 0 Z " fill="#B4B6B4" transform="translate(334,702)"/>
<path d="M0 0 C0.33 0 0.66 0 1 0 C1 2.97 1 5.94 1 9 C1.66 9 2.32 9 3 9 C2.34 10.98 1.68 12.96 1 15 C0.67 15 0.34 15 0 15 C0 10.05 0 5.1 0 0 Z " fill="#222221" transform="translate(439,704)"/>
<path d="M0 0 C0.99 0.33 1.98 0.66 3 1 C3 1.99 3 2.98 3 4 C3.66 4 4.32 4 5 4 C4.67 4.66 4.34 5.32 4 6 C3.01 6 2.02 6 1 6 C-0.0625 4.125 -0.0625 4.125 -1 2 C-0.67 1.34 -0.34 0.68 0 0 Z " fill="#2F2F2D" transform="translate(347,704)"/>
<path d="M0 0 C2.97 0.495 2.97 0.495 6 1 C6 1.99 6 2.98 6 4 C3.03 3.505 3.03 3.505 0 3 C0 2.01 0 1.02 0 0 Z " fill="#7A7A78" transform="translate(514,634)"/>
<path d="M0 0 C0.66 0.33 1.32 0.66 2 1 C1.34 2.98 0.68 4.96 0 7 C-0.99 6.67 -1.98 6.34 -3 6 C-1.125 1.125 -1.125 1.125 0 0 Z " fill="#7A7977" transform="translate(502,504)"/>
<path d="M0 0 C1.98 0.66 3.96 1.32 6 2 C6 2.66 6 3.32 6 4 C4.02 4 2.04 4 0 4 C0 2.68 0 1.36 0 0 Z " fill="#222421" transform="translate(439,680)"/>
<path d="M0 0 C2.97 0.495 2.97 0.495 6 1 C5.67 1.99 5.34 2.98 5 4 C3.35 4.33 1.7 4.66 0 5 C0 3.35 0 1.7 0 0 Z " fill="#BEBEBD" transform="translate(645,679)"/>
<path d="M0 0 C0.33 0.66 0.66 1.32 1 2 C-0.98 2.99 -0.98 2.99 -3 4 C-3.33 3.34 -3.66 2.68 -4 2 C-4.99 1.34 -5.98 0.68 -7 0 C-3.88407501 -1.03864166 -2.9737344 -1.09036928 0 0 Z " fill="#CBCBCA" transform="translate(653,679)"/>
<path d="M0 0 C-2.66666667 1.33333333 -5.33333333 2.66666667 -8 4 C-8.33 3.01 -8.66 2.02 -9 1 C-5.57367167 -0.61798838 -3.61944899 -1.34053666 0 0 Z " fill="#383736" transform="translate(539,505)"/>
</svg>
